<?xml version="1.0" encoding="UTF-8"?><svg xmlns="http://www.w3.org/2000/svg" viewBox="0 0 600 600"><defs><style>.d{fill:#2e3440;}</style></defs><g id="a"/><g id="b"><g id="c"><g><g><path class="d" d="M147.16,127.07h-56.09v197.82h60.61c44.33,0,74.48-19,74.48-57.9,0-27.14-16.89-42.82-45.84-47.35v-1.21c23.52-6.03,34.68-23.52,34.68-43.12,0-34.68-27.44-48.25-67.85-48.25h0Zm-31.06,83.23v-62.12h28.04c30.46,0,46.14,7.84,46.14,29.25s-13.57,32.87-47.35,32.87h-26.84Zm0,93.48v-72.37h31.97c34.68,0,53.38,9.95,53.38,34.38,0,26.84-19.6,38-53.38,38h-31.97Z"/><path class="d" d="M229.1,83.49v13.7c7.99,0,20.79,1.66,31.4,5.36,9.37,3.27,15.19,7.52,15.19,11.09h.03c0,.07,0,.14,0,.2v224.5h-.07c0,3.57-5.82,7.82-15.19,11.09-10.6,3.7-23.41,5.36-31.4,5.36v13.7c14.14,0,40.9-4.26,53.46-15.86,12.56,11.6,39.32,15.86,53.46,15.86v-13.7c-7.99,0-20.79-1.66-31.4-5.36-9.19-3.21-14.95-7.35-15.17-10.88h0V113.83c0-3.57,5.82-7.82,15.19-11.09,10.6-3.7,23.41-5.36,31.4-5.36v-13.7c-14.1,0-40.73,4.23-53.34,15.75-12.51-11.68-39.38-15.96-53.56-15.96h0Z"/></g><path class="d" d="M569.85,0H30.15C13.5,0,0,13.5,0,30.15V569.85c0,16.65,13.5,30.15,30.15,30.15H189.88v-20H30.22c-5.65,0-10.22-4.58-10.22-10.22V30.22c0-5.65,4.58-10.22,10.22-10.22H569.78c5.65,0,10.22,4.58,10.22,10.22V569.78c0,5.65-4.58,10.22-10.22,10.22H249.88v20h319.98c16.65,0,30.15-13.5,30.15-30.15V30.15c0-16.65-13.5-30.15-30.15-30.15Z"/></g></g></g></svg>