<?xml version="1.0" encoding="UTF-8"?><svg xmlns="http://www.w3.org/2000/svg" viewBox="0 0 670 670"><defs><style>.d{fill:#ffe680;}.e{fill:#183752;}</style></defs><g id="a"/><g id="b"><g id="c"><g><g><rect class="e" y="70" width="600" height="600" rx="90.44" ry="90.44"/><rect class="e" x="1" y="69" width="600" height="600" rx="90.44" ry="90.44"/><rect class="e" x="2" y="68" width="600" height="600" rx="90.44" ry="90.44"/><rect class="e" x="3" y="67" width="600" height="600" rx="90.44" ry="90.44"/><rect class="e" x="4" y="66" width="600" height="600" rx="90.44" ry="90.44"/><rect class="e" x="5" y="65" width="600" height="600" rx="90.44" ry="90.44"/><rect class="e" x="6" y="64" width="600" height="600" rx="90.44" ry="90.44"/><rect class="e" x="7" y="63" width="600" height="600" rx="90.44" ry="90.44"/><rect class="e" x="8" y="62" width="600" height="600" rx="90.44" ry="90.44"/><rect class="e" x="9" y="61" width="600" height="600" rx="90.44" ry="90.44"/><rect class="e" x="10" y="60" width="600" height="600" rx="90.44" ry="90.44"/><rect class="e" x="11" y="59" width="600" height="600" rx="90.44" ry="90.44"/><rect class="e" x="12" y="58" width="600" height="600" rx="90.44" ry="90.44"/><rect class="e" x="13" y="57" width="600" height="600" rx="90.44" ry="90.44"/><rect class="e" x="14" y="56" width="600" height="600" rx="90.44" ry="90.44"/><rect class="e" x="15" y="55" width="600" height="600" rx="90.44" ry="90.44"/><rect class="e" x="16" y="54" width="600" height="600" rx="90.44" ry="90.44"/><rect class="e" x="17" y="53" width="600" height="600" rx="90.44" ry="90.44"/><rect class="e" x="18" y="52" width="600" height="600" rx="90.44" ry="90.44"/><rect class="e" x="19" y="51" width="600" height="600" rx="90.44" ry="90.44"/><rect class="e" x="20" y="50" width="600" height="600" rx="90.44" ry="90.44"/><rect class="e" x="21" y="49" width="600" height="600" rx="90.44" ry="90.44"/><rect class="e" x="22" y="48" width="600" height="600" rx="90.44" ry="90.44"/><rect class="e" x="23" y="47" width="600" height="600" rx="90.44" ry="90.44"/><rect class="e" x="24" y="46" width="600" height="600" rx="90.44" ry="90.44"/><rect class="e" x="25" y="45" width="600" height="600" rx="90.44" ry="90.44"/><rect class="e" x="26" y="44" width="600" height="600" rx="90.44" ry="90.44"/><rect class="e" x="27" y="43" width="600" height="600" rx="90.44" ry="90.44"/><rect class="e" x="28" y="42" width="600" height="600" rx="90.44" ry="90.44"/><rect class="e" x="29" y="41" width="600" height="600" rx="90.44" ry="90.44"/><rect class="e" x="30" y="40" width="600" height="600" rx="90.44" ry="90.44"/><rect class="e" x="31" y="39" width="600" height="600" rx="90.44" ry="90.44"/><rect class="e" x="32" y="38" width="600" height="600" rx="90.44" ry="90.44"/><rect class="e" x="33" y="37" width="600" height="600" rx="90.44" ry="90.44"/><rect class="e" x="34" y="36" width="600" height="600" rx="90.44" ry="90.44"/><rect class="e" x="35" y="35" width="600" height="600" rx="90.44" ry="90.44"/><rect class="e" x="36" y="34" width="600" height="600" rx="90.44" ry="90.44"/><rect class="e" x="37" y="33" width="600" height="600" rx="90.44" ry="90.44"/><rect class="e" x="38" y="32" width="600" height="600" rx="90.44" ry="90.44"/><rect class="e" x="39" y="31" width="600" height="600" rx="90.44" ry="90.44"/><rect class="e" x="40" y="30" width="600" height="600" rx="90.44" ry="90.44"/><rect class="e" x="41" y="29" width="600" height="600" rx="90.44" ry="90.44"/><rect class="e" x="42" y="28" width="600" height="600" rx="90.44" ry="90.44"/><rect class="e" x="43" y="27" width="600" height="600" rx="90.44" ry="90.44"/><rect class="e" x="44" y="26" width="600" height="600" rx="90.44" ry="90.44"/><rect class="e" x="45" y="25" width="600" height="600" rx="90.44" ry="90.44"/><rect class="e" x="46" y="24" width="600" height="600" rx="90.44" ry="90.44"/><rect class="e" x="47" y="23" width="600" height="600" rx="90.44" ry="90.44"/><rect class="e" x="48" y="22" width="600" height="600" rx="90.44" ry="90.44"/><rect class="e" x="49" y="21" width="600" height="600" rx="90.44" ry="90.44"/><rect class="e" x="50" y="20" width="600" height="600" rx="90.44" ry="90.44"/><rect class="e" x="51" y="19" width="600" height="600" rx="90.44" ry="90.44"/><rect class="e" x="52" y="18" width="600" height="600" rx="90.44" ry="90.44"/><rect class="e" x="53" y="17" width="600" height="600" rx="90.44" ry="90.44"/><rect class="e" x="54" y="16" width="600" height="600" rx="90.44" ry="90.44"/><rect class="e" x="55" y="15" width="600" height="600" rx="90.44" ry="90.44"/><rect class="e" x="56" y="14" width="600" height="600" rx="90.44" ry="90.44"/><rect class="e" x="57" y="13" width="600" height="600" rx="90.44" ry="90.44"/><rect class="e" x="58" y="12" width="600" height="600" rx="90.44" ry="90.44"/><rect class="e" x="59" y="11" width="600" height="600" rx="90.44" ry="90.44"/><rect class="e" x="60" y="10" width="600" height="600" rx="90.44" ry="90.44"/><rect class="e" x="61" y="9" width="600" height="600" rx="90.44" ry="90.44"/><rect class="e" x="62" y="8" width="600" height="600" rx="90.44" ry="90.44"/><rect class="e" x="63" y="7" width="600" height="600" rx="90.44" ry="90.44"/><rect class="e" x="64" y="6" width="600" height="600" rx="90.44" ry="90.44"/><rect class="e" x="65" y="5" width="600" height="600" rx="90.44" ry="90.44"/><rect class="e" x="66" y="4" width="600" height="600" rx="90.44" ry="90.44"/><rect class="e" x="67" y="3" width="600" height="600" rx="90.44" ry="90.44"/><rect class="e" x="68" y="2" width="600" height="600" rx="90.44" ry="90.44"/><rect class="e" x="69" y="1" width="600" height="600" rx="90.44" ry="90.44"/><rect class="e" x="70" width="600" height="600" rx="90.44" ry="90.44"/></g><rect class="d" x="108" y="37" width="525" height="525" rx="90.34" ry="90.34"/><g><path class="e" d="M214.07,173.16h71.65c51.62,0,86.67,17.33,86.67,61.63,0,25.04-14.25,47.38-44.3,55.08v1.54c36.98,5.78,58.55,25.81,58.55,60.48,0,49.69-38.52,73.96-95.14,73.96h-77.42V173.16Zm66.25,106.31c43.14,0,60.48-13.87,60.48-41.99s-20.03-37.36-58.93-37.36h-35.82v79.35h34.28Zm6.55,119.41c43.14,0,68.18-14.25,68.18-48.53,0-31.2-23.88-43.91-68.18-43.91h-40.83v92.45h40.83Z"/><path class="e" d="M467.42,156.25c0-4.56,7.43-9.99,19.4-14.16,13.55-4.73,29.9-6.84,40.11-6.84v-17.5c-18.01,0-52.03,5.4-68.13,20.12-15.98-14.92-50.3-20.38-68.42-20.38v17.5c10.2,0,26.56,2.12,40.11,6.84,11.97,4.17,19.4,9.6,19.4,14.16h.04c0,.09,0,.17,0,.26V443.01h-.09c0,4.56-7.43,9.99-19.4,14.16-13.55,4.73-29.9,6.84-40.11,6.84v17.5c18.06,0,52.24-5.44,68.28-20.26,16.04,14.82,50.22,20.26,68.28,20.26v-17.5c-10.2,0-26.56-2.12-40.11-6.84-11.74-4.1-19.1-9.39-19.37-13.9h0V156.25Z"/></g></g></g></g></svg>