<?xml version="1.0" encoding="UTF-8"?><svg xmlns="http://www.w3.org/2000/svg" viewBox="0 0 600 600"><defs><style>.d{fill:#fff;}</style></defs><g id="a"/><g id="b"><g id="c"><g><path class="d" d="M91.07,127.07h56.09c40.41,0,67.85,13.57,67.85,48.25,0,19.6-11.16,37.09-34.68,43.12v1.21c28.95,4.52,45.84,20.2,45.84,47.35,0,38.9-30.16,57.9-74.49,57.9h-60.61V127.07Zm51.87,83.23c33.77,0,47.35-10.86,47.35-32.87s-15.68-29.25-46.14-29.25h-28.04v62.12h26.84Zm5.13,93.48c33.77,0,53.38-11.16,53.38-38,0-24.43-18.7-34.38-53.38-34.38h-31.97v72.37h31.97Z"/><path class="d" d="M289.41,113.83c0-3.57,5.82-7.82,15.19-11.09,10.6-3.7,23.41-5.36,31.4-5.36v-13.7c-14.1,0-40.73,4.23-53.34,15.75-12.51-11.68-39.38-15.96-53.56-15.96v13.7c7.99,0,20.79,1.66,31.4,5.36,9.37,3.27,15.19,7.52,15.19,11.09h.03c0,.07,0,.14,0,.2v224.5h-.07c0,3.57-5.82,7.82-15.19,11.09-10.6,3.7-23.41,5.36-31.4,5.36v13.7c14.14,0,40.9-4.26,53.46-15.86,12.56,11.6,39.32,15.86,53.46,15.86v-13.7c-7.99,0-20.79-1.66-31.4-5.36-9.19-3.21-14.95-7.35-15.17-10.88h0V113.83Z"/><path class="d" d="M569.85,0H30.15C13.5,0,0,13.5,0,30.15V569.85c0,16.65,13.5,30.15,30.15,30.15H189.88v-20H30.22c-5.65,0-10.22-4.58-10.22-10.22V30.22c0-5.65,4.58-10.22,10.22-10.22H569.78c5.65,0,10.22,4.58,10.22,10.22V569.78c0,5.65-4.58,10.22-10.22,10.22H249.88v20h319.98c16.65,0,30.15-13.5,30.15-30.15V30.15c0-16.65-13.5-30.15-30.15-30.15Z"/></g></g></g></svg>